<?xml version="1.0" standalone="no"?>
<!DOCTYPE svg PUBLIC "-//W3C//DTD SVG 20010904//EN"
 "http://www.w3.org/TR/2001/REC-SVG-20010904/DTD/svg10.dtd">
<svg version="1.0" xmlns="http://www.w3.org/2000/svg"
 width="200.000000pt" height="200.000000pt" viewBox="0 0 200.000000 200.000000"
 preserveAspectRatio="xMidYMid meet">

<g transform="translate(0.000000,200.000000) scale(0.100000,-0.100000)"
fill="#000000" stroke="none">
<path d="M513 760 c-4 -14 -14 -20 -34 -20 -37 0 -54 -29 -33 -58 11 -15 24
-21 49 -20 l35 1 0 59 c0 58 -7 75 -17 38z m-5 -58 c3 -18 -1 -22 -21 -22 -28
0 -41 22 -24 39 17 17 42 9 45 -17z"/>
<path d="M560 770 c0 -5 5 -10 10 -10 6 0 10 5 10 10 0 6 -4 10 -10 10 -5 0
-10 -4 -10 -10z"/>
<path d="M837 773 c-11 -10 -8 -113 3 -113 6 0 10 27 10 60 0 61 -1 65 -13 53z"/>
<path d="M1740 719 c0 -61 14 -74 22 -19 5 40 42 34 46 -7 2 -18 8 -33 13 -33
6 0 9 17 7 38 -3 34 -6 37 -35 40 -20 2 -33 9 -33 17 0 8 -4 17 -10 20 -6 4
-10 -17 -10 -56z"/>
<path d="M170 715 c0 -30 5 -55 10 -55 6 0 10 19 10 42 0 41 0 41 20 23 16
-14 23 -16 32 -7 20 20 28 14 28 -23 0 -19 5 -35 10 -35 6 0 10 25 10 55 0 60
-13 70 -45 35 l-18 -20 -14 20 c-27 38 -43 25 -43 -35z"/>
<path d="M930 715 c0 -30 5 -55 10 -55 6 0 10 7 10 15 0 10 10 15 29 15 28 0
61 22 61 40 0 21 -34 40 -71 40 l-39 0 0 -55z m80 15 c0 -16 -7 -20 -30 -20
-23 0 -30 4 -30 20 0 16 7 20 30 20 23 0 30 -4 30 -20z"/>
<path d="M628 736 c-29 -14 -34 -39 -13 -60 18 -18 60 -22 70 -6 4 6 -6 10
-23 10 -17 0 -32 6 -35 14 -7 18 18 40 38 33 8 -4 17 -2 20 2 8 15 -32 19 -57
7z"/>
<path d="M1460 739 c-27 -8 -19 -12 17 -10 11 1 24 -3 28 -8 4 -7 -7 -11 -28
-11 -37 0 -55 -21 -33 -39 7 -6 29 -10 49 -9 33 1 37 4 37 27 0 45 -25 63 -70
50z m40 -49 c0 -5 -9 -10 -20 -10 -11 0 -20 5 -20 10 0 6 9 10 20 10 11 0 20
-4 20 -10z"/>
<path d="M324 726 c-16 -41 31 -79 72 -61 16 8 14 10 -13 13 -44 5 -42 22 2
22 33 0 35 2 25 20 -13 24 -77 28 -86 6z m61 -6 c4 -6 -5 -10 -20 -10 -15 0
-24 4 -20 10 3 6 12 10 20 10 8 0 17 -4 20 -10z"/>
<path d="M560 700 c0 -22 5 -40 10 -40 6 0 10 18 10 40 0 22 -4 40 -10 40 -5
0 -10 -18 -10 -40z"/>
<path d="M720 731 c0 -6 7 -8 15 -5 8 4 23 3 33 -2 13 -6 9 -9 -18 -13 -26 -5
-35 -11 -35 -26 0 -17 7 -20 43 -20 l43 -1 -3 36 c-3 33 -5 35 -40 38 -22 2
-38 -1 -38 -7z m60 -41 c0 -5 -12 -10 -26 -10 -14 0 -23 4 -19 10 3 6 15 10
26 10 10 0 19 -4 19 -10z"/>
<path d="M1060 700 c0 -22 5 -40 10 -40 6 0 10 12 10 26 0 15 8 33 18 40 15
12 14 13 -10 14 -26 0 -28 -3 -28 -40z"/>
<path d="M1140 731 c0 -6 7 -8 15 -5 8 4 23 3 33 -2 13 -6 9 -9 -18 -13 -26
-5 -35 -11 -35 -26 0 -17 7 -20 43 -21 l43 -2 -3 37 c-3 34 -5 36 -40 39 -22
2 -38 -1 -38 -7z m60 -41 c0 -5 -11 -10 -25 -10 -14 0 -25 5 -25 10 0 6 11 10
25 10 14 0 25 -4 25 -10z"/>
<path d="M1250 700 c0 -48 17 -54 22 -7 2 24 8 32 23 32 15 0 21 -8 23 -32 2
-18 7 -33 12 -33 5 0 10 15 12 33 2 24 8 32 23 32 15 0 21 -8 23 -32 2 -18 8
-33 13 -33 6 0 9 17 7 38 l-3 37 -77 3 -78 3 0 -41z"/>
<path d="M1560 700 c0 -22 5 -40 10 -40 6 0 10 12 10 26 0 15 8 33 18 40 15
12 14 13 -10 14 -26 0 -28 -3 -28 -40z"/>
<path d="M1633 724 c-7 -19 15 -36 40 -30 9 2 17 0 17 -5 0 -5 -14 -9 -31 -9
-17 0 -28 -4 -24 -10 9 -15 61 -12 75 5 17 20 4 35 -31 35 -16 0 -29 5 -29 11
0 7 10 9 25 7 14 -3 25 -1 25 3 0 16 -60 10 -67 -7z"/>
<path d="M332 540 c0 -19 2 -27 5 -17 2 9 2 25 0 35 -3 9 -5 1 -5 -18z"/>
<path d="M492 540 c0 -19 2 -27 5 -17 2 9 2 25 0 35 -3 9 -5 1 -5 -18z"/>
<path d="M561 556 c-13 -15 -5 -46 12 -46 7 0 7 4 -1 12 -18 18 -15 28 11 38
15 6 17 9 6 9 -9 1 -22 -5 -28 -13z"/>
<path d="M739 558 c0 -7 -2 -21 -4 -30 -2 -10 1 -18 6 -18 5 0 9 14 9 30 0 29
-9 44 -11 18z"/>
<path d="M1141 565 c0 -5 5 -20 12 -32 13 -23 13 -23 25 10 10 28 10 30 -2 14
-14 -18 -15 -18 -25 0 -6 10 -10 14 -10 8z"/>
<path d="M1380 540 c0 -26 2 -29 14 -18 10 9 11 15 2 21 -8 5 -7 10 4 17 13 8
12 10 -2 10 -13 0 -18 -8 -18 -30z"/>
<path d="M170 554 c0 -20 27 -37 36 -23 5 9 10 7 15 -7 6 -15 8 -13 8 11 1 27
0 28 -16 13 -15 -16 -17 -16 -29 0 -8 9 -14 12 -14 6z"/>
<path d="M1072 535 c0 -16 2 -22 5 -12 2 9 2 23 0 30 -3 6 -5 -1 -5 -18z"/>
<path d="M1665 550 c-3 -5 -1 -18 4 -27 9 -16 10 -14 11 10 0 28 -5 34 -15 17z"/>
<path d="M833 543 c-7 -3 -13 -12 -13 -21 1 -14 2 -14 12 3 11 19 11 19 19 0
6 -16 8 -17 8 -3 1 20 -9 27 -26 21z"/>
<path d="M1013 534 c-3 -8 -3 -18 1 -21 3 -4 6 1 6 11 0 9 5 14 10 11 6 -4 8
-11 5 -16 -4 -5 -1 -9 4 -9 17 0 13 27 -4 34 -9 3 -18 -1 -22 -10z"/>
<path d="M1201 536 c-9 -11 -9 -16 0 -22 7 -4 9 -3 5 4 -3 6 -2 13 3 16 5 4
12 -2 14 -11 4 -16 5 -16 6 -1 1 23 -14 31 -28 14z"/>
<path d="M1480 545 c0 -5 5 -17 10 -25 5 -8 10 -10 10 -5 0 6 -5 17 -10 25 -5
8 -10 11 -10 5z"/>
<path d="M1757 529 c4 -13 8 -18 11 -10 2 7 -1 18 -6 23 -8 8 -9 4 -5 -13z"/>
<path d="M250 525 c0 -8 4 -15 10 -15 5 0 7 7 4 15 -4 8 -8 15 -10 15 -2 0 -4
-7 -4 -15z"/>
<path d="M300 525 c0 -8 4 -15 10 -15 5 0 7 7 4 15 -4 8 -8 15 -10 15 -2 0 -4
-7 -4 -15z"/>
<path d="M361 524 c0 -11 3 -14 6 -6 3 7 2 16 -1 19 -3 4 -6 -2 -5 -13z"/>
<path d="M430 531 c0 -6 4 -12 8 -15 5 -3 9 1 9 9 0 8 -4 15 -9 15 -4 0 -8 -4
-8 -9z"/>
<path d="M461 524 c0 -11 3 -14 6 -6 3 7 2 16 -1 19 -3 4 -6 -2 -5 -13z"/>
<path d="M593 525 c0 -8 4 -15 9 -15 4 0 8 4 8 9 0 6 -4 12 -8 15 -5 3 -9 -1
-9 -9z"/>
<path d="M651 524 c0 -11 3 -14 6 -6 3 7 2 16 -1 19 -3 4 -6 -2 -5 -13z"/>
<path d="M681 524 c0 -11 3 -14 6 -6 3 7 2 16 -1 19 -3 4 -6 -2 -5 -13z"/>
<path d="M765 531 c-3 -5 -2 -12 3 -15 5 -3 9 1 9 9 0 17 -3 19 -12 6z"/>
<path d="M793 525 c0 -8 4 -12 9 -9 4 3 8 9 8 15 0 5 -4 9 -8 9 -5 0 -9 -7 -9
-15z"/>
<path d="M1251 524 c0 -11 3 -14 6 -6 3 7 2 16 -1 19 -3 4 -6 -2 -5 -13z"/>
<path d="M1300 525 c0 -8 2 -15 4 -15 2 0 6 7 10 15 3 8 1 15 -4 15 -6 0 -10
-7 -10 -15z"/>
<path d="M1431 524 c0 -11 3 -14 6 -6 3 7 2 16 -1 19 -3 4 -6 -2 -5 -13z"/>
<path d="M1461 524 c0 -11 3 -14 6 -6 3 7 2 16 -1 19 -3 4 -6 -2 -5 -13z"/>
<path d="M1510 531 c0 -6 4 -12 8 -15 5 -3 9 1 9 9 0 8 -4 15 -9 15 -4 0 -8
-4 -8 -9z"/>
<path d="M1540 521 c0 -11 -6 -22 -12 -24 -8 -3 -6 -6 5 -6 12 -1 17 7 17 24
0 14 -2 25 -5 25 -3 0 -5 -9 -5 -19z"/>
<path d="M1570 525 c0 -8 4 -15 10 -15 5 0 7 7 4 15 -4 8 -8 15 -10 15 -2 0
-4 -7 -4 -15z"/>
<path d="M1620 529 c0 -5 5 -7 10 -4 6 3 10 8 10 11 0 2 -4 4 -10 4 -5 0 -10
-5 -10 -11z"/>
<path d="M1701 524 c0 -11 3 -14 6 -6 3 7 2 16 -1 19 -3 4 -6 -2 -5 -13z"/>
<path d="M1732 515 c0 -16 2 -22 5 -12 2 9 2 23 0 30 -3 6 -5 -1 -5 -18z"/>
<path d="M1796 527 c3 -10 9 -15 12 -12 3 3 0 11 -7 18 -10 9 -11 8 -5 -6z"/>
</g>
</svg>
